<?xml version="1.0" encoding="iso-8859-1"?>
<!-- Generator: Adobe Illustrator 19.0.0, SVG Export Plug-In . SVG Version: 6.00 Build 0)  -->
<svg version="1.1" id="Layer_1" xmlns="http://www.w3.org/2000/svg" xmlns:xlink="http://www.w3.org/1999/xlink" x="0px" y="0px"
	 viewBox="0 0 512 512" style="enable-background:new 0 0 512 512;" xml:space="preserve">
<path style="fill:#5D7EAC;" d="M512,322.783H0V22.261C0,9.966,9.966,0,22.261,0h467.478C502.034,0,512,9.966,512,22.261V322.783z"/>
<path style="fill:#344966;" d="M512,22.261v300.522h-33.391V22.261C478.609,9.966,468.642,0,456.348,0h33.391
	C502.034,0,512,9.966,512,22.261z"/>
<path style="fill:#809DED;" d="M178.087,322.783H44.522V0h133.565V322.783z"/>
<path style="fill:#ABC5FF;" d="M445.217,58.435H111.304c-4.61,0-8.348,3.738-8.348,8.348v166.957c0,4.61,3.738,8.348,8.348,8.348
	h333.913c4.61,0,8.348-3.738,8.348-8.348V66.783C453.565,62.172,449.828,58.435,445.217,58.435z M436.87,225.391H119.652V75.13
	H436.87V225.391z"/>
<path style="fill:#687B40;" d="M489.739,411.826H22.261C9.966,411.826,0,401.86,0,389.565v-89.043h512v89.043
	C512,401.86,502.034,411.826,489.739,411.826z"/>
<path style="fill:#465123;" d="M512,300.522v89.043c0,12.295-9.966,22.261-22.261,22.261h-33.391
	c12.295,0,22.261-9.966,22.261-22.261v-89.043H512z"/>
<path style="fill:#AACE80;" d="M155.826,356.174L155.826,356.174c0,12.295-9.966,22.261-22.261,22.261H55.652
	c-12.295,0-22.261-9.966-22.261-22.261l0,0c0-12.295,9.966-22.261,22.261-22.261h77.913
	C145.86,333.913,155.826,343.879,155.826,356.174z"/>
<path style="fill:#FF6600;" d="M233.739,356.174c0,12.295-9.966,22.261-22.261,22.261c-12.295,0-22.261-9.966-22.261-22.261
	c0-12.295,9.966-22.261,22.261-22.261C223.773,333.913,233.739,343.879,233.739,356.174z M150.261,44.522H72.348
	c-3.073,0-5.565,2.492-5.565,5.565v33.391c0,3.073,2.492,5.565,5.565,5.565h77.913c3.073,0,5.565-2.492,5.565-5.565V50.087
	C155.826,47.014,153.334,44.522,150.261,44.522z"/>
<path style="fill:#5D7EAC;" d="M150.261,256H72.348c-3.073,0-5.565-2.492-5.565-5.565v-33.391c0-3.073,2.492-5.565,5.565-5.565
	h77.913c3.073,0,5.565,2.492,5.565,5.565v33.391C155.826,253.508,153.334,256,150.261,256z"/>
<path style="fill:#FFCB39;" d="M478.609,356.174c0,12.295-9.966,22.261-22.261,22.261s-22.261-9.966-22.261-22.261
	c0-12.295,9.966-22.261,22.261-22.261S478.609,343.879,478.609,356.174z M152.75,143.157l-38.957-19.478
	c-1.567-0.784-3.411-0.784-4.978,0l-38.957,19.478c-1.885,0.943-3.076,2.869-3.076,4.978v4.251c0,2.108,1.191,4.035,3.076,4.978
	l38.957,19.478c1.567,0.784,3.411,0.784,4.978,0l38.957-19.478c1.885-0.943,3.076-2.869,3.076-4.978v-4.251
	C155.826,146.027,154.635,144.1,152.75,143.157z"/>
<path style="fill:#CEDEEC;" d="M489.739,456.082V512H178.087v-55.918c0-19.661,12.897-36.994,31.728-42.644l79.576-23.873h89.043
	l79.576,23.873C476.842,419.088,489.739,436.421,489.739,456.082z"/>
<path style="fill:#ABC5FF;" d="M489.739,456.082V512h-22.261v-65.903c0-12.527-4.449-24.249-12.039-33.43l2.571,0.771
	C476.842,419.088,489.739,436.421,489.739,456.082z"/>
<path style="fill:#D9B166;" d="M425.375,211.478l-13.549,88.068c-0.644,4.187,7.043,8.233,5.677,12.105
	c-6.56,18.589-21.001,33.168-39.068,40.1v71.205h-89.043v-71.206c-18.066-6.931-32.504-21.507-39.066-40.093
	c-1.368-3.875,6.319-7.923,5.674-12.112l-13.549-88.067H425.375z"/>
<path style="fill:#F5D472;" d="M332.271,356.174h-18.977c-28.725,0-53.707-18.264-62.97-44.521
	c-1.367-3.872,6.321-7.919,5.677-12.108l-13.549-88.067h169.375l-13.549,88.068C393.265,332.125,365.233,356.174,332.271,356.174z"
	/>
<path style="fill:#809DED;" d="M250.435,401.252l38.957-11.687h89.043l38.957,11.687V512H250.435V401.252z"/>
<path style="fill:#5D7EAC;" d="M417.391,401.252V512h-11.13h-5.565H250.435v-16.696h139.13c6.147,0,11.13-4.983,11.13-11.13v-87.93
	L417.391,401.252z"/>
<path style="fill:#BC8E50;" d="M247.288,299.546l-13.549-88.067h194.678l-13.549,88.067c-0.644,4.188-1.675,8.233-3.042,12.107
	h-17.651c-2.952,0-5.783-1.173-7.87-3.26l-9.4-9.4c-4.966-4.966-13.235-4.148-17.132,1.696l-8.555,12.833
	c-3.857,5.786-10.351,9.262-17.304,9.262l0,0c-6.954,0-13.448-3.475-17.305-9.262l-8.556-12.833
	c-3.896-5.845-12.164-6.663-17.132-1.696l-9.401,9.401c-2.087,2.087-4.919,3.26-7.87,3.26h-23.32
	C248.963,307.779,247.933,303.734,247.288,299.546z"/>
<path style="fill:#996633;" d="M434.087,211.478l-13.549,88.067c-0.644,4.188-1.675,8.233-3.042,12.107h-22.261
	c1.367-3.873,2.397-7.918,3.042-12.107l13.549-88.067H434.087z"/>
<path style="fill:#FFCB39;" d="M445.217,217.998c0,8.693-7.048,15.741-15.741,15.741H238.349c-8.693,0-15.741-7.048-15.741-15.741
	c0-4.175,1.658-8.179,4.61-11.13l17.651-17.651l12.113-36.34c6.061-18.18,23.073-30.443,42.237-30.443h1.302
	c0-6.147,4.983-11.13,11.13-11.13h44.522c6.147,0,11.13,4.983,11.13,11.13h1.302c19.163,0,36.177,12.262,42.237,30.443l12.113,36.34
	l17.651,17.651C443.559,209.82,445.217,213.823,445.217,217.998z"/>
<path style="fill:#FFB933;" d="M422.957,189.217v22.261H289.391c-6.147,0-11.13-4.983-11.13-11.13c0-6.147,4.983-11.13,11.13-11.13
	h11.13v-66.783c0-6.147,4.983-11.13,11.13-11.13h44.522c6.147,0,11.13,4.983,11.13,11.13v66.783H422.957z"/>
<path style="fill:#FF9600;" d="M445.217,217.998c0,8.694-7.048,15.741-15.741,15.741h-22.261c8.693,0,15.741-7.048,15.741-15.741
	c0-4.175-1.658-8.179-4.61-11.13l-17.651-17.651l-12.113-36.34c-3.691-11.074-11.45-19.944-21.278-25.193v61.532h-22.261v-66.783
	c0-6.147-4.983-11.13-11.13-11.13h22.261c6.147,0,11.13,4.983,11.13,11.13h1.302c19.163,0,36.177,12.262,42.237,30.443l12.113,36.34
	l17.651,17.651C443.559,209.82,445.217,213.823,445.217,217.998z"/>
<g>
</g>
<g>
</g>
<g>
</g>
<g>
</g>
<g>
</g>
<g>
</g>
<g>
</g>
<g>
</g>
<g>
</g>
<g>
</g>
<g>
</g>
<g>
</g>
<g>
</g>
<g>
</g>
<g>
</g>
</svg>
